# xmcd
# 
# Track frame offsets:
#     165
#     16372
#     32259
#     46069
#     65717
#     81717
#     97727
#     119337
#     134077
#     149692
#     165767
#     184803
# 
# Disc length: 2682
# 
# Revision: 5
# Processed by: cddbd v1.5.2PL0 Copyright (c) Steve Scherf et al.
# Submitted via: BonkEnc v1.0
# 
DISCID=a10a780c
DTITLE=Jarabe de Palo - La Flaca
DYEAR=2000
DGENRE=
TTITLE0=Quiero ser poeta
TTITLE1=Vuela
TTITLE2=No suelo compararme
TTITLE3=La Flaca
TTITLE4=Grita
TTITLE5=El bosque de Palo
TTITLE6=El lado oscuro
TTITLE7=Quitame la vida
TTITLE8=Dueño de mi silencio
TTITLE9=Desamor
TTITLE10=A lo loco
TTITLE11=La flaca (acústica)
EXTD=
EXTT0=
EXTT1=
EXTT2=
EXTT3=
EXTT4=
EXTT5=
EXTT6=
EXTT7=
EXTT8=
EXTT9=
EXTT10=
EXTT11=
PLAYORDER=
